<?xml version="1.0" ?><!DOCTYPE svg  PUBLIC '-//W3C//DTD SVG 1.1//EN'  'http://www.w3.org/Graphics/SVG/1.1/DTD/svg11.dtd'><svg xmlns="http://www.w3.org/2000/svg" xmlns:xlink="http://www.w3.org/1999/xlink" xmlns:serif="http://www.serif.com/" width="100%" height="100%" viewBox="0 0 512 512" version="1.1" xml:space="preserve" style="fill-rule:evenodd;clip-rule:evenodd;stroke-linejoin:round;stroke-miterlimit:2;"><g transform="matrix(1,0,0,1,-1124,-1686)"><g id="Icons"><path d="M1389.51,1759.63C1389.29,1759.79 1389.09,1759.97 1388.9,1760.16C1387.27,1761.62 1385.76,1763.24 1384.38,1765.06C1379.29,1771.75 1375.94,1781.11 1375.64,1795.06C1375.22,1814.59 1380.82,1843.7 1395.87,1888.16C1402.77,1915.03 1399.95,1943.45 1396.01,1970.26C1358.07,1970.24 1299.49,1992.33 1241.09,2010.41C1224.55,2015.54 1196.1,2016.44 1180.84,2014.36C1179.32,2014.16 1177.75,2013.8 1176.41,2013.44C1177.15,2013.05 1177.96,2012.66 1178.77,2012.34C1185.61,2009.6 1196.64,2006.71 1209.93,2003.64C1246.92,1995.12 1300.99,1985.4 1332.08,1974.79C1340.45,1971.94 1347.21,1968.98 1351.68,1966.01C1355.43,1963.52 1357.72,1960.84 1358.63,1958.28C1359.68,1955.32 1359.42,1953.01 1358.52,1951.08C1357.41,1948.71 1354.99,1946.83 1351.75,1945.24C1349.55,1944.16 1346.93,1943.13 1344.48,1941.67C1341.59,1939.93 1338.93,1937.5 1338.23,1933.05C1337.96,1931.28 1336.54,1929.91 1334.77,1929.69C1333,1929.47 1331.29,1930.46 1330.6,1932.11C1329.07,1935.73 1327.35,1939.45 1326.69,1942.9C1326.11,1945.91 1326.28,1948.77 1327.51,1951.35C1327.69,1951.73 1327.9,1952.12 1328.14,1952.5C1269.74,1964.33 1194.94,1971.21 1159.05,1989.65C1140.91,1998.97 1132.22,2011.3 1137.38,2027.63C1139.31,2033.73 1145.51,2038.79 1154.09,2042.43C1165.39,2047.22 1180.84,2049.85 1193.17,2050.97C1209.65,2052.46 1227.79,2050.59 1247.66,2045.21C1244.85,2051.35 1243.16,2057.92 1242.76,2064.88C1241.08,2093.76 1261.3,2112.66 1290.98,2124.37C1333.28,2141.05 1394.88,2143.2 1433.16,2141.89C1470.38,2140.62 1529.64,2131.78 1571.85,2113.44C1586.25,2107.19 1598.68,2099.82 1607.72,2091.33C1617.26,2082.35 1623.08,2072.09 1623.85,2060.59C1625.6,2034.11 1612.52,2012.91 1583.3,1997.6C1556.23,1983.41 1514.88,1974.28 1458.5,1970.65C1465.87,1946.97 1475.23,1919.3 1483.89,1887.15C1496.72,1847.84 1502.13,1820.97 1502.83,1802.28C1503.32,1789.13 1501.49,1779.84 1498.34,1773.01C1494.21,1764.06 1487.8,1759.15 1480.71,1755.62C1474.41,1752.49 1467.54,1750.55 1461.59,1747.35C1446.81,1739.4 1434.17,1740.93 1419.64,1745.76C1408.46,1749.48 1397.63,1752.7 1389.51,1759.63ZM1456.09,1978.51C1454.66,1983.25 1453.33,1987.82 1452.12,1992.23C1474.37,1993.84 1489.29,2002.82 1497.36,2014.17C1522.92,2018.25 1540.43,2022.62 1551.34,2027C1559.73,2030.37 1564.52,2034.02 1566.56,2037.36C1569.06,2041.46 1568.63,2045.53 1565.34,2049.46C1563.03,2052.23 1558.91,2055.01 1553.18,2057.55C1535.7,2065.32 1502.04,2071.74 1464.15,2074.93C1462.64,2075.11 1461.09,2075.24 1459.49,2075.32C1459.44,2075.32 1459.38,2075.32 1459.33,2075.32C1447.33,2076.24 1434.96,2076.84 1422.59,2077.05C1417.71,2077.13 1412.43,2077.13 1406.92,2077.04C1406.3,2077.18 1405.67,2077.17 1405.06,2077.01C1371.89,2076.39 1330.8,2072.91 1315.28,2067.95C1310.82,2066.53 1308.11,2064.62 1307.12,2063.02C1306.05,2061.31 1305.94,2059.55 1306.75,2057.77C1309.96,2050.66 1318.31,2044.87 1330.17,2040.55C1345.51,2034.97 1366.88,2031.48 1388.82,2028.92C1388.93,2023.38 1389.37,2017.61 1390.03,2011.64C1390.5,2007.37 1391.07,2003 1391.71,1998.54C1347.72,1995.83 1306.9,2004.19 1280.39,2021.19C1262.95,2032.37 1251.8,2047.29 1250.75,2065.34C1249.27,2090.71 1267.84,2106.64 1293.92,2116.93C1335.26,2133.23 1395.47,2135.18 1432.89,2133.9C1469.33,2132.65 1527.34,2124.06 1568.66,2106.11C1582.12,2100.26 1593.79,2093.44 1602.24,2085.5C1610.17,2078.04 1615.23,2069.62 1615.86,2060.06C1617.42,2036.66 1605.41,2018.22 1579.59,2004.68C1552.92,1990.7 1511.98,1981.96 1456.09,1978.51ZM1481.77,1765.45C1475.69,1767.77 1471.45,1772.18 1467.79,1777.8C1467.71,1777.93 1467.62,1778.06 1467.54,1778.18C1467.52,1778.22 1467.49,1778.26 1467.47,1778.3C1463.17,1785.04 1459.66,1793.37 1455.36,1802.29C1452.79,1807.62 1446.33,1810.5 1439.72,1810.44C1433.1,1810.38 1426.74,1807.34 1424.37,1802.41C1419.83,1793.01 1414.74,1784.69 1408.67,1778.32C1408.39,1778.1 1408.14,1777.84 1407.93,1777.55C1403.47,1773.04 1398.49,1769.56 1392.84,1767.45C1392.1,1768.22 1391.41,1769.03 1390.75,1769.9C1385.32,1777.04 1382.64,1787.85 1383.94,1805.3C1385.32,1823.89 1391.25,1849.6 1403.5,1885.74C1403.53,1885.83 1403.56,1885.93 1403.58,1886.02C1411.04,1914.94 1407.64,1945.64 1403.4,1974.32C1403.4,1974.38 1403.4,1974.43 1403.4,1974.49C1403.39,1974.84 1403.33,1975.18 1403.23,1975.51C1402.24,1982.16 1401.21,1988.7 1400.28,1995.08C1400.27,1995.1 1400.27,1995.13 1400.27,1995.15C1400.25,1995.37 1400.22,1995.57 1400.17,1995.78C1399.34,2001.5 1398.57,2007.09 1397.98,2012.51C1397.24,2019.27 1396.74,2025.76 1396.71,2031.91C1396.72,2031.95 1396.73,2032 1396.73,2032.05C1396.77,2032.4 1396.77,2032.75 1396.72,2033.08C1396.8,2047.33 1399.52,2059.67 1407.74,2069.06C1412.92,2069.13 1417.87,2069.13 1422.45,2069.05C1431.47,2068.9 1440.49,2068.54 1449.36,2068C1439.25,2057.29 1435.99,2043.59 1437.31,2026.36C1437.31,2026.26 1437.31,2026.17 1437.32,2026.08C1437.33,2026.01 1437.33,2025.94 1437.34,2025.87C1437.44,2024.66 1437.56,2023.43 1437.7,2022.19C1439.28,2008.38 1443.59,1992.29 1449.27,1973.67C1449.33,1973.32 1449.43,1972.98 1449.58,1972.67C1457.13,1948.01 1467.03,1918.97 1476.2,1884.97C1476.22,1884.9 1476.24,1884.84 1476.26,1884.77C1488.78,1846.41 1494.15,1820.21 1494.83,1801.98C1495.26,1790.49 1493.84,1782.33 1491.08,1776.37C1488.76,1771.34 1485.49,1767.97 1481.77,1765.45ZM1388.9,2036.97C1367.94,2039.43 1347.57,2042.73 1332.91,2048.07C1324.67,2051.07 1318.26,2054.53 1315.12,2059.14C1317.22,2059.94 1321.45,2061.46 1325.67,2062.3C1342.63,2065.69 1371.69,2068.06 1397.62,2068.84C1391.93,2059.88 1389.44,2049.1 1388.9,2036.97ZM1462.3,2067.09C1486.02,2064.67 1497.89,2049.28 1496.45,2033.58C1494.95,2017.32 1479.48,2001.75 1450.05,2000.11C1448,2008.33 1446.48,2015.93 1445.67,2022.94C1449.34,2023.56 1451.84,2024.5 1453.2,2025.52C1455.01,2026.88 1455.73,2028.55 1455.76,2030.28C1455.78,2031.65 1455.31,2033.26 1453.9,2034.93C1452.5,2036.6 1449.74,2038.64 1445.5,2040.92C1446.87,2051.61 1451.39,2060.32 1460.48,2067.23C1461.09,2067.18 1461.7,2067.14 1462.3,2067.09ZM1502.13,2023.06C1503.35,2026.28 1504.11,2029.57 1504.41,2032.85C1505.46,2044.21 1501.13,2055.76 1491.45,2063.96C1517.3,2060.48 1538.94,2055.46 1551.25,2049.64C1554.22,2048.23 1556.6,2046.8 1558.26,2045.31C1559.25,2044.41 1560,2043.6 1560.09,2042.67C1560.13,2042.15 1559.86,2041.66 1559.46,2041.13C1558.93,2040.43 1558.17,2039.74 1557.22,2039.03C1549.79,2033.54 1532.41,2028.18 1502.13,2023.06ZM1394.81,1978.26C1357.48,1978.62 1300.42,2000.41 1243.46,2018.05C1223.38,2024.27 1186.78,2024.62 1173.46,2021.09C1170.09,2020.2 1167.89,2018.85 1166.89,2017.62C1165.81,2016.29 1165.46,2014.86 1165.68,2013.38C1165.86,2012.17 1166.45,2010.88 1167.65,2009.64C1168.65,2008.61 1170.22,2007.5 1172.38,2006.42C1178.94,2003.15 1191.93,1999.58 1208.14,1995.85C1244.88,1987.38 1298.61,1977.76 1329.49,1967.22C1337.06,1964.64 1343.2,1962.04 1347.25,1959.35C1349.18,1958.06 1350.62,1956.92 1351.09,1955.6C1351.25,1955.14 1351.4,1954.79 1351.28,1954.48C1351.12,1954.1 1350.72,1953.87 1350.31,1953.59C1348.96,1952.67 1347.17,1951.92 1345.27,1951.04C1341.55,1949.33 1337.59,1947.23 1334.64,1943.83C1334.24,1945.36 1334.12,1946.81 1334.82,1948.09C1335.47,1949.26 1336.76,1950.16 1338.74,1951C1340.35,1951.68 1341.33,1953.32 1341.17,1955.06C1341.01,1956.79 1339.74,1958.23 1338.03,1958.6C1279.3,1971.37 1199.88,1977.67 1162.71,1996.76C1148.8,2003.9 1141.05,2012.71 1145.01,2025.22C1146.37,2029.5 1151.19,2032.51 1157.21,2035.06C1167.82,2039.55 1182.32,2041.95 1193.9,2043C1211.7,2044.62 1231.56,2042.02 1253.53,2035.16C1259.15,2027.35 1266.79,2020.41 1276.08,2014.45C1303.88,1996.63 1346.73,1987.64 1392.9,1990.6C1393.52,1986.54 1394.16,1982.42 1394.81,1978.26ZM1445.07,2030.93C1445.06,2031.27 1445.05,2031.61 1445.04,2031.94C1445.3,2031.78 1445.54,2031.62 1445.76,2031.46C1445.9,2031.37 1446.04,2031.26 1446.18,2031.16C1445.83,2031.08 1445.46,2031 1445.07,2030.93ZM1445.42,1775.25C1443.67,1774.61 1441.92,1773.91 1440.15,1773.14C1438.53,1773.89 1436.86,1774.56 1435.15,1775.16C1434.98,1775.7 1434.78,1776.28 1434.56,1776.92C1433.35,1780.36 1431.93,1783.74 1431.93,1783.74C1431.93,1783.74 1430.45,1780.39 1429.18,1776.97L1429.17,1776.96C1426.03,1777.74 1422.76,1778.31 1419.39,1778.67C1423.91,1784.55 1427.94,1791.4 1431.57,1798.94C1432.8,1801.48 1436.38,1802.41 1439.79,1802.44C1443.21,1802.47 1446.83,1801.57 1448.15,1798.82C1451.61,1791.64 1454.6,1784.85 1457.85,1778.89C1455.7,1778.4 1453.53,1777.84 1451.33,1777.19C1450.14,1780.54 1448.8,1783.74 1448.8,1783.74C1448.8,1783.74 1447.32,1780.39 1446.04,1776.97C1445.81,1776.34 1445.6,1775.77 1445.42,1775.25ZM1473.06,1760.93C1467.88,1758.75 1462.56,1756.95 1457.8,1754.4C1445.25,1747.65 1434.5,1749.25 1422.16,1753.35C1414.3,1755.97 1406.52,1758.09 1400.02,1761.88C1404.62,1764.21 1408.84,1767.34 1412.72,1771.13C1422.17,1770.8 1430.76,1768.93 1438.3,1765.15C1439.39,1764.61 1440.66,1764.59 1441.76,1765.1C1448.78,1768.32 1455.7,1770.34 1462.28,1771.66C1465.35,1767.29 1468.83,1763.64 1473.06,1760.93Z"/></g></g></svg>